<?xml version="1.0" encoding="UTF-8"?>
<svg width="20px" height="33px" viewBox="0 0 20 33" version="1.1" xmlns="http://www.w3.org/2000/svg" xmlns:xlink="http://www.w3.org/1999/xlink">
    <!-- Generator: sketchtool 46.1 (44463) - http://www.bohemiancoding.com/sketch -->
    <title>89DFC459-A3AD-43E7-ABCF-9165487387ED</title>
    <desc>Created with sketchtool.</desc>
    <defs></defs>
    <g id="Page-1" stroke="none" stroke-width="1" fill="none" fill-rule="evenodd">
        <g id="main" transform="translate(-1281.000000, -3993.000000)" fill="#FFFFFF">
            <g id="footer" transform="translate(0.000000, 3920.000000)">
                <g id="Group" transform="translate(1150.000000, 71.000000)">
                    <g id="OK" transform="translate(131.000000, 2.000000)">
                        <path d="M10.6666667,5.28 C12.872447,5.28 14.6666667,6.76007516 14.6666667,8.58023849 C14.6666667,10.3989709 12.872447,11.88 10.6666667,11.88 C8.46262042,11.88 6.66666667,10.3989709 6.66666667,8.58023849 C6.66666667,6.76007516 8.46262042,5.28 10.6666667,5.28 L10.6666667,5.28 Z M10,17.16 C5.22044716,17.16 1.33333333,13.3119253 1.33333333,8.58128355 C1.33333333,3.84910152 5.22044716,0 10,0 C14.78059,0 18.6666667,3.84910152 18.6666667,8.58128355 C18.6666667,13.3119253 14.78059,17.16 10,17.16 Z M13.6055032,23.8861705 L18.5869857,28.696905 C19.6074885,29.6802637 19.6074885,31.2773204 18.5869857,32.2617088 C17.5675493,33.2460971 15.9152305,33.2460971 14.8968604,32.2617088 L9.9990868,27.5343795 L5.10557861,32.2617088 C4.59532721,32.7533881 3.92672193,32.9994852 3.25811665,32.9994852 C2.59057772,32.9994852 1.9230388,32.7533881 1.4127874,32.2617088 C0.393350956,31.2773204 0.393350956,29.6812933 1.41172104,28.696905 L6.39373679,23.8861705 C4.57986505,23.4871637 2.83050785,22.7931493 1.21924376,21.8169986 C-0.000134449349,21.0745886 -0.366427773,19.5192344 0.401881804,18.3407486 C1.16805867,17.1607182 2.77932275,16.8054735 4.00083368,17.5478835 C7.64883793,19.7637869 12.3482693,19.7643018 15.9984063,17.5478835 C17.2199172,16.8054735 18.8306481,17.1607182 19.5984245,18.3407486 C20.3667341,19.5182047 19.9993744,21.0745886 18.7799962,21.8169986 C17.1687321,22.794179 15.4193749,23.4871637 13.6055032,23.8861705 Z" id="Shape"></path>
                    </g>
                </g>
            </g>
        </g>
    </g>
</svg>