<?xml version="1.0" encoding="UTF-8"?>
<svg width="28px" height="23px" viewBox="0 0 28 23" version="1.1" xmlns="http://www.w3.org/2000/svg" xmlns:xlink="http://www.w3.org/1999/xlink">
    <!-- Generator: sketchtool 46.1 (44463) - http://www.bohemiancoding.com/sketch -->
    <title>8B53F1F8-4D75-4EEA-8FBB-5A7B46A2E06D</title>
    <desc>Created with sketchtool.</desc>
    <defs></defs>
    <g id="Page-1" stroke="none" stroke-width="1" fill="none" fill-rule="evenodd">
        <g id="main" transform="translate(-1238.000000, -3996.000000)" fill="#FFFFFF">
            <g id="footer" transform="translate(0.000000, 3920.000000)">
                <g id="Group" transform="translate(1150.000000, 71.000000)">
                    <g id="Twitter" transform="translate(88.000000, 5.000000)">
                        <path d="M13.5955977,6.11836013 L13.6562924,7.11317499 L12.6447151,6.99136092 C8.9625741,6.52440701 5.74575856,4.94082417 3.01450009,2.28121709 L1.67921817,0.961564722 L1.33528192,1.93607724 C0.606946327,4.10842806 1.07227184,6.40259294 2.58963766,7.94557109 C3.39889943,8.79826955 3.21681553,8.92008361 1.82083898,8.41252501 C1.33528192,8.25010626 0.910419491,8.12829219 0.869956402,8.18919922 C0.728335593,8.33131563 1.21389265,10.1788289 1.59829199,10.9097133 C2.12431215,11.9248305 3.19658399,12.9196454 4.37001356,13.5084134 L5.36135922,13.9753673 L4.18792966,13.9956696 C3.05496318,13.9956696 3.01450009,14.015972 3.13588936,14.4423212 C3.54052024,15.7619736 5.13881224,17.1628353 6.91918813,17.7719056 L8.17354387,18.1982549 L7.08104048,18.8479299 C5.46251694,19.7818377 3.56075179,20.3096987 1.65898663,20.3503033 C0.748567137,20.3706057 -2.84217094e-14,20.4518151 -2.84217094e-14,20.5127221 C-2.84217094e-14,20.7157455 2.4682484,21.8526768 3.90468804,22.2993284 C8.21400696,23.6189807 13.3325877,23.0505151 17.1765811,20.7969549 C19.9078395,19.1930697 22.639098,16.0056017 23.9136853,12.9196454 C24.6015578,11.2751555 25.2894303,8.2704086 25.2894303,6.82894217 C25.2894303,5.89503434 25.3501249,5.77322028 26.4830914,4.65659135 C27.1507324,4.00691634 27.7779102,3.29633429 27.8992995,3.09331085 C28.1016149,2.70756632 28.0813834,2.70756632 27.0495746,3.05270617 C25.3298934,3.66177649 25.0871149,3.58056711 25.9368397,2.66696163 C26.5640176,2.01728662 27.3125847,0.839750658 27.3125847,0.494610808 C27.3125847,0.433703776 27.0091116,0.535215496 26.6651753,0.717936593 C26.3010075,0.920960034 25.4917457,1.2254952 24.8847994,1.40821629 L23.792296,1.75335614 L22.8009504,1.08337879 C22.2546987,0.717936593 21.4859,0.311889711 21.0812691,0.190075646 C20.0494603,-0.0941571712 18.4713999,-0.053552483 17.5407489,0.271285023 C15.0118058,1.18489051 13.4135138,3.53996242 13.5955977,6.11836013 Z" id="Shape"></path>
                    </g>
                </g>
            </g>
        </g>
    </g>
</svg>