<?xml version="1.0" encoding="UTF-8"?>
<svg width="38px" height="21px" viewBox="0 0 38 21" version="1.1" xmlns="http://www.w3.org/2000/svg" xmlns:xlink="http://www.w3.org/1999/xlink">
    <!-- Generator: sketchtool 46.1 (44463) - http://www.bohemiancoding.com/sketch -->
    <title>3022F84B-C5C7-46A9-95EB-EC1C6E01E83F</title>
    <desc>Created with sketchtool.</desc>
    <defs></defs>
    <g id="Page-1" stroke="none" stroke-width="1" fill="none" fill-rule="evenodd">
        <g id="main" transform="translate(-1183.000000, -3999.000000)" fill="#FFFFFF">
            <g id="footer" transform="translate(0.000000, 3920.000000)">
                <g id="Group" transform="translate(1150.000000, 71.000000)">
                    <g id="VK" transform="translate(33.000000, 8.000000)">
                        <path d="M20.863577,20.9122267 C20.863577,20.9122267 21.5493936,20.8384114 21.9006655,20.4729359 C22.2222,20.1380667 22.2110486,19.506136 22.2110486,19.506136 C22.2110486,19.506136 22.1683012,16.555326 23.5826816,16.119636 C24.9766177,15.6911474 26.7664316,18.9732259 28.6659018,20.2352868 C30.1007267,21.189484 31.1898554,20.9806408 31.1898554,20.9806408 L36.2656413,20.9122267 C36.2656413,20.9122267 38.9196955,20.753794 37.6614359,18.731976 C37.5573554,18.5663418 36.9272963,17.2358667 33.8885156,14.5029017 C30.7047657,11.6421104 31.1322394,12.104806 34.9646343,7.15558289 C37.2990125,4.14175986 38.2320204,2.30177949 37.9402231,1.51501685 C37.6632945,0.762461281 35.9459653,0.962302593 35.9459653,0.962302593 L30.232686,0.996509664 C30.232686,0.996509664 29.8089294,0.940698126 29.4948292,1.12253572 C29.1881632,1.30077256 28.989295,1.71665854 28.989295,1.71665854 C28.989295,1.71665854 28.0860244,4.04814051 26.8798051,6.03215065 C24.3354071,10.2162156 23.3187631,10.4376614 22.9024408,10.1784078 C21.9341199,9.57168235 22.1757355,7.74430459 22.1757355,6.44623625 C22.1757355,2.38999773 22.8113704,0.699448255 20.9397789,0.261957815 C20.3190127,0.116127669 19.8618016,0.0207079431 18.2727145,0.00450459348 C16.2338507,-0.0152995005 14.5090871,0.0117060822 13.5314733,0.474401732 C12.8809698,0.782265375 12.3791528,1.47000755 12.6858188,1.50961573 C13.0631108,1.55822578 13.9180583,1.73286189 14.3715521,2.33058545 C14.9570053,3.10294511 14.9365609,4.83490315 14.9365609,4.83490315 C14.9365609,4.83490315 15.2729641,9.60949017 14.1503809,10.2018126 C13.3809282,10.6086967 12.325254,9.77872515 10.0559261,5.98174023 C8.89431267,4.03733827 8.01706224,1.88769389 8.01706224,1.88769389 C8.01706224,1.88769389 7.84793133,1.4862109 7.54498256,1.27016624 C7.17884202,1.00911227 6.66773213,0.928095521 6.66773213,0.928095521 L1.23881579,0.962302593 C1.23881579,0.962302593 0.422898549,0.983907059 0.12366694,1.32777814 C-0.142110204,1.63204104 0.103222544,2.26397168 0.103222544,2.26397168 C0.103222544,2.26397168 4.35379826,11.8977632 9.16752414,16.753367 C13.581655,21.203887 18.5923905,20.9122267 18.5923905,20.9122267 L20.863577,20.9122267 Z" id="Shape"></path>
                    </g>
                </g>
            </g>
        </g>
    </g>
</svg>